# File created by Blade
# Date/Time:  Wed Jan 21 18:02:28 2015
#---------------------------------------------------------
:version 1.10
:name HOM
:units
  mass 1.0
  length 1.000000
  angle deg
:documentation
     Acclaim Skeleton File
:root
   axis xyz
   order TX TY TZ RX RY RZ
   position 0.000000 0.000000 0.000000
   orientation 0 0 0
:bonedata
   begin
      id 1
      name Spine_dum
      direction 0.000000 1.000000 0.000000
      length 7.067664
      axis 0.0 0.0 0.0 xyz
   end
   begin
      id 2
      name LeftUpLeg_dum
      direction 1.000000 0.000000 0.000000
      length 4.013002
      axis 0.0 0.0 0.0 xyz
   end
   begin
      id 3
      name RightUpLeg_dum
      direction -1.000000 0.000000 0.000000
      length 4.013002
      axis 0.0 0.0 0.0 xyz
   end
   begin
      id 4
      name Spine
      direction 0.000000 1.000000 0.000000
      length 0.000000
      axis 0.0 0.0 0.0 xyz
      dof rx ry rz
   end
   begin
      id 5
      name Spine_dum1
      direction 0.000000 1.000000 0.000000
      length 15.039886
      axis 0.0 0.0 0.0 xyz
   end
   begin
      id 6
      name Spine_dum2
      direction 0.000000 1.000000 0.000000
      length 10.530368
      axis 0.0 0.0 0.0 xyz
   end
   begin
      id 7
      name Spine_dum3
      direction 0.000000 1.000000 0.000000
      length 10.530368
      axis 0.0 0.0 0.0 xyz
   end
   begin
      id 8
      name Head
      direction 0.000000 1.000000 0.000000
      length 4.527550
      axis 0.0 0.0 0.0 xyz
      dof rx ry rz
   end
   begin
      id 9
      name LeftShoulder
      direction 1.000000 0.000000 0.000000
      length 7.028855
      axis 0.0 0.0 -90.0 xyz
      dof rx ry rz
   end
   begin
      id 10
      name LeftArm
      direction 1.000000 0.000000 0.000000
      length 10.797705
      axis 0.0 0.0 -90.0 xyz
      dof rx ry rz
   end
   begin
      id 11
      name LeftForeArm
      direction 1.000000 0.000000 0.000000
      length 7.907442
      axis 0.0 0.0 -90.0 xyz
      dof ry rz rx
   end
   begin
      id 12
      name LeftHand
      direction 0.000000 0.000000 0.000000
      length 0.000000
      axis 0.0 0.0 -90.0 xyz
      dof rx ry rz
   end
   begin
      id 13
      name LeftHand_dum1
      direction 0.000000 0.000000 0.000000
      length 0.000000
      axis 0.0 0.0 -90.0 xyz
   end
   begin
      id 14
      name LeftHand_dum2
      direction 1.000000 0.000000 0.000000
      length 3.937000
      axis 0.0 0.0 -90.0 xyz
   end
   begin
      id 15
      name LeftHandThumb1
      direction 0.000000 0.000000 1.000000
      length 3.937000
      axis 0.0 0.0 -90.0 xyz
      dof rx rz ry
   end
   begin
      id 16
      name RightShoulder
      direction -1.000000 0.000000 0.000000
      length 7.028855
      axis 0.0 0.0 90.0 xyz
      dof rx ry rz
   end
   begin
      id 17
      name RightArm
      direction -1.000000 0.000000 0.000000
      length 10.797705
      axis 0.0 0.0 90.0 xyz
      dof rx ry rz
   end
   begin
      id 18
      name RightForeArm
      direction -1.000000 0.000000 0.000000
      length 7.907442
      axis 0.0 0.0 90.0 xyz
      dof ry rz rx
   end
   begin
      id 19
      name RightHand
      direction 0.000000 0.000000 0.000000
      length 0.000000
      axis 0.0 0.0 90.0 xyz
      dof rx ry rz
   end
   begin
      id 20
      name RightHand_dum1
      direction 0.000000 0.000000 0.000000
      length 0.000000
      axis 0.0 0.0 90.0 xyz
   end
   begin
      id 21
      name RightHand_dum2
      direction -1.000000 0.000000 0.000000
      length 3.937000
      axis 0.0 0.0 90.0 xyz
   end
   begin
      id 22
      name RightHandThumb1
      direction 0.000000 0.000000 1.000000
      length 3.937000
      axis 0.0 0.0 90.0 xyz
      dof rx rz ry
   end
   begin
      id 23
      name LeftUpLeg
      direction 0.000000 -1.000000 0.000000
      length 16.899758
      axis 0.0 0.0 0.0 xyz
      dof rx ry rz
   end
   begin
      id 24
      name LeftLeg
      direction 0.000000 -1.000000 0.000000
      length 17.389183
      axis 0.0 0.0 0.0 xyz
      dof rx ry rz
   end
   begin
      id 25
      name LeftFoot
      direction 0.000000 -0.258819 0.965926
      length 4.924528
      axis 15.0 0.0 0.0 xyz
      dof rx ry rz
   end
   begin
      id 26
      name LeftToeBase
      direction 0.000000 0.000000 1.000000
      length 2.952750
      axis 0.0 0.0 0.0 xyz
      dof rx ry rz
   end
   begin
      id 27
      name RightUpLeg
      direction 0.000000 -1.000000 0.000000
      length 16.899758
      axis 0.0 0.0 0.0 xyz
      dof rx ry rz
   end
   begin
      id 28
      name RightLeg
      direction 0.000000 -1.000000 0.000000
      length 17.389183
      axis 0.0 0.0 0.0 xyz
      dof rx ry rz
   end
   begin
      id 29
      name RightFoot
      direction 0.000000 -0.258819 0.965926
      length 4.924528
      axis 15.0 0.0 0.0 xyz
      dof rx ry rz
   end
   begin
      id 30
      name RightToeBase
      direction 0.000000 0.000000 1.000000
      length 2.952750
      axis 0.0 0.0 0.0 xyz
      dof rx ry rz
   end
:hierarchy
   begin
      root Spine_dum LeftUpLeg_dum RightUpLeg_dum
      Spine_dum Spine
      LeftUpLeg_dum LeftUpLeg
      RightUpLeg_dum RightUpLeg
      Spine Spine_dum1 Spine_dum2 Spine_dum3
      Spine_dum1 Head
      Spine_dum2 LeftShoulder
      Spine_dum3 RightShoulder
      LeftShoulder LeftArm
      LeftArm LeftForeArm
      LeftForeArm LeftHand
      LeftHand LeftHand_dum1 LeftHand_dum2
      LeftHand_dum1 LeftHandThumb1
      RightShoulder RightArm
      RightArm RightForeArm
      RightForeArm RightHand
      RightHand RightHand_dum1 RightHand_dum2
      RightHand_dum1 RightHandThumb1
      LeftUpLeg LeftLeg
      LeftLeg LeftFoot
      LeftFoot LeftToeBase
      RightUpLeg RightLeg
      RightLeg RightFoot
      RightFoot RightToeBase
   end

# File created by Blade
# Date/Time:  Wed Jan 21 18:02:19 2015
# Frame Rate: 120.000 fps
#------------------------------------------------------
:FULLY-SPECIFIED
:DEGREES
1
root 19.599115 35.411090 -22.407771 -170.674790 -0.292221 -179.260971
Spine -20.538862 0.828635 -0.183526
Head 9.428430 -1.376631 1.074762
LeftShoulder -13.249473 -30.789140 20.441511
LeftArm 1.729220 2.256587 -10.305654
LeftForeArm 7.037872 0.000000 -2.716891
LeftHand -7.725193 -0.000000 -3.946895
LeftHandThumb1 -26.253704 0.000000 33.147579
RightShoulder -13.844487 -6.791172 -8.482247
RightArm 9.959023 37.302431 15.336990
RightForeArm -36.802997 -0.000000 5.193181
RightHand -6.695627 -0.000000 5.947003
RightHandThumb1 -24.326973 -0.000000 -32.862282
LeftUpLeg 1.010081 12.295625 0.988247
LeftLeg -5.223880 -0.000000 0.000000
LeftFoot -20.673256 22.787565 -12.636159
LeftToeBase 24.864521 -0.000000 -0.000000
RightUpLeg 0.323039 -8.632009 0.698049
RightLeg -3.664106 -0.000000 0.000000
RightFoot -22.667923 -23.945743 16.429092
RightToeBase 24.042643 -0.000000 -0.000000
2
root 19.598832 35.411334 -22.405469 -170.693354 -0.294600 -179.261869
Spine -20.499333 0.831997 -0.194541
Head 9.427966 -1.399920 1.082867
LeftShoulder -13.241932 -30.788310 20.444007
LeftArm 1.748145 2.272218 -10.301208
LeftForeArm 7.029163 -0.000000 -2.720994
LeftHand -7.750405 0.000000 -3.922657
LeftHandThumb1 -26.253704 0.000000 33.147579
RightShoulder -13.860328 -6.788503 -8.463254
RightArm 9.979557 37.307452 15.320587
RightForeArm -36.772694 0.000000 5.181873
RightHand -6.680607 -0.000000 5.924295
RightHandThumb1 -24.326973 -0.000000 -32.862282
LeftUpLeg 1.028933 12.282294 0.990757
LeftLeg -5.230269 -0.000000 0.000000
LeftFoot -20.660379 22.791593 -12.638691
LeftToeBase 24.849613 -0.000000 -0.000000
RightUpLeg 0.338927 -8.630209 0.695234
RightLeg -3.667246 -0.000000 0.000000
RightFoot -22.666721 -23.962406 16.416531
RightToeBase 24.044473 -0.000000 -0.000000
3
root 19.598095 35.411691 -22.403138 -170.707237 -0.306365 -179.260580
Spine -20.466836 0.816813 -0.195452
Head 9.438942 -1.403705 1.093550
LeftShoulder -13.256392 -30.797725 20.463881
LeftArm 1.767716 2.285436 -10.303441
LeftForeArm 7.048168 -0.000000 -2.727744
LeftHand -7.755823 -0.000000 -3.912284
LeftHandThumb1 -26.253704 0.000000 33.147579
RightShoulder -13.867144 -6.790941 -8.459320
RightArm 10.001840 37.343338 15.332345
RightForeArm -36.805229 0.000000 5.207092
RightHand -6.689182 -0.000000 5.931940
RightHandThumb1 -24.326973 -0.000000 -32.862282
LeftUpLeg 1.034481 12.273753 0.994153
LeftLeg -5.228505 -0.000000 0.000000
LeftFoot -20.660365 22.785607 -12.636643
LeftToeBase 24.734744 -0.000000 -0.000000
RightUpLeg 0.351246 -8.644908 0.695044
RightLeg -3.668919 -0.000000 0.000000
RightFoot -22.658564 -23.955029 16.421792
RightToeBase 24.020965 -0.000000 -0.000000
4
root 19.598163 35.412117 -22.400095 -170.719217 -0.313852 -179.261576
Spine -20.441236 0.798772 -0.201091
Head 9.485899 -1.381320 1.086274
LeftShoulder -13.259264 -30.770324 20.463106
LeftArm 1.804072 2.257434 -10.292101
LeftForeArm 7.063146 -0.000000 -2.753367
LeftHand -7.748103 -0.000000 -3.894676
LeftHandThumb1 -26.253704 0.000000 33.147579
RightShoulder -13.853253 -6.781832 -8.454129
RightArm 10.004449 37.381579 15.321042
RightForeArm -36.724771 -0.000000 5.238462
RightHand -6.734166 -0.000000 6.013004
RightHandThumb1 -24.326973 -0.000000 -32.862282
LeftUpLeg 1.041068 12.272515 0.995064
LeftLeg -5.231632 -0.000000 0.000000
LeftFoot -20.642296 22.775811 -12.636115
LeftToeBase 24.838019 -0.000000 -0.000000
RightUpLeg 0.360763 -8.647851 0.694665
RightLeg -3.673416 -0.000000 0.000000
RightFoot -22.655003 -23.960267 16.422451
RightToeBase 24.044437 -0.000000 -0.000000
